<svg width="157" height="42" viewBox="0 0 157 42" fill="none" xmlns="http://www.w3.org/2000/svg">
<path d="M12.25 21H14.3153C15.1495 21 15.8678 21.5889 16.0314 22.4068L17.5 29.75L9.72072 34.9361C8.55776 35.7115 7 34.8778 7 33.4801V26.25C7 23.3504 9.35051 21 12.25 21Z" fill="white"/>
<path d="M29.75 21H27.6847C26.8504 21 26.1322 21.5889 25.9686 22.4068L24.5 29.75L32.2793 34.9361C33.4423 35.7115 35 34.8778 35 33.4801V26.25C35 23.3504 32.6496 21 29.75 21Z" fill="white"/>
<path d="M23.04 35H18.959C18.1301 35 17.4078 35.5915 17.4773 36.4175C17.5867 37.7184 18.2004 39.5369 20.6569 40.1718C20.8805 40.2295 21.1185 40.2295 21.3422 40.1718C23.7987 39.5369 24.4124 37.7184 24.5218 36.4175C24.5912 35.5915 23.8688 35 23.04 35Z" fill="white"/>
<path d="M12.2513 14.0005C13.5635 10.0642 17.827 5.63596 19.8784 3.66634C20.5108 3.05914 21.4919 3.05914 22.1241 3.66634C24.1757 5.63596 28.4392 10.0642 29.7512 14.0005C31.1044 18.0602 29.4551 25.3524 28.2264 29.7022C27.6205 31.847 25.6346 33.2505 23.406 33.2505H18.5814C16.36 33.2505 14.379 31.8561 13.77 29.7197C12.5353 25.3881 10.8796 18.115 12.2513 14.0005Z" fill="#98AAE9"/>
<path d="M21 21C22.933 21 24.5 19.433 24.5 17.5C24.5 15.567 22.933 14 21 14C19.067 14 17.5 15.567 17.5 17.5C17.5 19.433 19.067 21 21 21Z" fill="white"/>
<path d="M59.1836 15.8172H63.1129C63.0358 12.009 59.789 9.3125 54.9902 9.3125C50.2575 9.3125 46.7025 11.976 46.7135 15.9603C46.7135 19.1961 49.0138 21.0562 52.7229 22.0138L55.2874 22.6741C57.7198 23.2905 59.3267 24.0499 59.3377 25.7999C59.3267 27.726 57.4996 29.0138 54.8361 29.0138C52.2827 29.0138 50.3015 27.8691 50.1364 25.5028H46.1191C46.2842 29.9823 49.6191 32.5027 54.8691 32.5027C60.2732 32.5027 63.41 29.8062 63.421 25.8329C63.41 21.9257 60.1852 20.1427 56.7952 19.3392L54.682 18.8109C52.833 18.3707 50.8298 17.5892 50.8518 15.7072C50.8629 14.0122 52.3817 12.7685 54.9352 12.7685C57.3676 12.7685 58.9745 13.9021 59.1836 15.8172Z" fill="white"/>
<path d="M75.3271 15.2559H71.9922V11.2056H68.0079V15.2559H65.6085V18.3377H68.0079V27.737C67.9859 30.9178 70.2972 32.4807 73.2909 32.3927C74.4246 32.3597 75.206 32.1395 75.6353 31.9965L74.9639 28.8817C74.7437 28.9367 74.2925 29.0358 73.7972 29.0358C72.7956 29.0358 71.9922 28.6836 71.9922 27.0766V18.3377H75.3271V15.2559Z" fill="white"/>
<path d="M83.524 32.5027C86.1765 32.5027 87.7614 31.259 88.4879 29.8392H88.6199V32.1616H92.4501V20.8471C92.4501 16.3785 88.807 15.0358 85.5822 15.0358C82.0272 15.0358 79.2976 16.6207 78.4171 19.7024L82.1372 20.2307C82.5334 19.0751 83.6561 18.0845 85.6042 18.0845C87.4533 18.0845 88.4658 19.0311 88.4658 20.693V20.759C88.4658 21.9037 87.2662 21.9587 84.2834 22.2779C81.0036 22.6301 77.8668 23.6097 77.8668 27.4178C77.8668 30.7417 80.2992 32.5027 83.524 32.5027ZM84.5586 29.5751C82.8967 29.5751 81.708 28.8156 81.708 27.3518C81.708 25.8219 83.0397 25.1836 84.8228 24.9304C85.8684 24.7873 87.9595 24.5232 88.4768 24.105V26.0971C88.4768 27.9792 86.958 29.5751 84.5586 29.5751Z" fill="white"/>
<path d="M96.4564 32.1616H100.441V22.2229C100.441 20.0766 102.059 18.5578 104.249 18.5578C104.92 18.5578 105.757 18.6789 106.098 18.7889V15.1238C105.735 15.0578 105.107 15.0138 104.667 15.0138C102.73 15.0138 101.112 16.1144 100.496 18.0735H100.32V15.2559H96.4564V32.1616Z" fill="white"/>
<path d="M118.095 15.2559H114.76V11.2056H110.776V15.2559H108.376V18.3377H110.776V27.737C110.754 30.9178 113.065 32.4807 116.059 32.3927C117.192 32.3597 117.974 32.1395 118.403 31.9965L117.732 28.8817C117.511 28.9367 117.06 29.0358 116.565 29.0358C115.563 29.0358 114.76 28.6836 114.76 27.0766V18.3377H118.095V15.2559Z" fill="white"/>
<path d="M132.202 25.0515C132.202 27.627 130.364 28.9037 128.603 28.9037C126.688 28.9037 125.411 27.5499 125.411 25.4037V15.2559H121.427V26.02C121.427 30.0814 123.738 32.3817 127.062 32.3817C129.594 32.3817 131.377 31.0499 132.147 29.1568H132.323V32.1616H136.186V15.2559H132.202V25.0515Z" fill="white"/>
<path d="M140.283 38.5012H144.268V29.498H144.433C145.06 30.7307 146.37 32.4587 149.276 32.4587C153.26 32.4587 156.243 29.2999 156.243 23.7307C156.243 18.0955 153.172 15.0358 149.265 15.0358C146.282 15.0358 145.038 16.8298 144.433 18.0515H144.202V15.2559H140.283V38.5012ZM144.191 23.7087C144.191 20.4289 145.599 18.3046 148.164 18.3046C150.816 18.3046 152.181 20.5609 152.181 23.7087C152.181 26.8785 150.794 29.1899 148.164 29.1899C145.621 29.1899 144.191 26.9886 144.191 23.7087Z" fill="white"/>
</svg>
